<svg height="512" viewBox="0 0 58 34" width="512" xmlns="http://www.w3.org/2000/svg"> <path id="Path" d="m53 2.82 2 14.18-2 14.18-11-6.18-2-8 2-8z" fill="dimgray"/><rect id="Rectangle" fill="dimgray" height="34" rx="3" width="42"/><path id="Path" d="m58 3.42v27.16c-.001222.709806-.3785673 1.3657871-.9915344 1.723694-.612967.357907-1.3697115.3641125-1.9884656.016306l-2.02-1.14v-28.36l2.02-1.14c.6187541-.3478065 1.3754986-.34160098 1.9884656.01630597.6129671.35790695.9903124 1.01388805.9915344 1.72369403z" fill="dimgray"/><path id="Path" d="m31 14h-7v-7c0-.55228475-.4477153-1-1-1h-4c-.5522847 0-1 .44771525-1 1v7h-7c-.5522847 0-1 .4477153-1 1v4c0 .5522847.4477153 1 1 1h7v7c0 .5522847.4477153 1 1 1h4c.5522847 0 1-.4477153 1-1v-7h7c.5522847 0 1-.4477153 1-1v-4c0-.5522847-.4477153-1-1-1z" fill="#fff"/></svg>